<?xml version="1.0" encoding="UTF-8" standalone="no"?>
<svg
   xmlns:dc="http://purl.org/dc/elements/1.1/"
   xmlns:cc="http://creativecommons.org/ns#"
   xmlns:rdf="http://www.w3.org/1999/02/22-rdf-syntax-ns#"
   xmlns:svg="http://www.w3.org/2000/svg"
   xmlns="http://www.w3.org/2000/svg"
   xmlns:sodipodi="http://sodipodi.sourceforge.net/DTD/sodipodi-0.dtd"
   xmlns:inkscape="http://www.inkscape.org/namespaces/inkscape"
   sodipodi:docname="fav10.svg"
   inkscape:version="1.1-dev (bc69992, 2020-04-15)"
   id="svg8"
   version="1.1"
   viewBox="0 0 222.16809 100.39182"
   height="100.39182mm"
   width="222.16809mm">
  <defs
     id="defs2" />
  <sodipodi:namedview
     inkscape:window-maximized="0"
     inkscape:window-y="23"
     inkscape:window-x="56"
     inkscape:window-height="1209"
     inkscape:window-width="1252"
     width="300mm"
     showborder="true"
     inkscape:showpageshadow="false"
     showgrid="false"
     inkscape:current-layer="layer1"
     inkscape:document-units="mm"
     inkscape:cy="564.47532"
     inkscape:cx="16.154539"
     inkscape:zoom="0.35"
     inkscape:pageshadow="2"
     inkscape:pageopacity="0.0"
     borderopacity="1.0"
     bordercolor="#666666"
     pagecolor="#ffffff"
     id="base" />
  <metadata
     id="metadata5">
    <rdf:RDF>
      <cc:Work
         rdf:about="">
        <dc:format>image/svg+xml</dc:format>
        <dc:type
           rdf:resource="http://purl.org/dc/dcmitype/StillImage" />
        <dc:title></dc:title>
      </cc:Work>
    </rdf:RDF>
  </metadata>
  <g
     transform="translate(-31.25554,-44.173048)"
     id="layer1"
     inkscape:groupmode="layer"
     inkscape:label="Layer 1">
    <g
       id="g277934">
      <g
         aria-label="fav"
         transform="scale(0.79167048,1.2631518)"
         id="text12"
         style="font-style:normal;font-variant:normal;font-weight:600;font-stretch:normal;font-size:108.918px;line-height:1.25;font-family:'Gill Sans';-inkscape-font-specification:'Gill Sans Semi-Bold';fill:#ff0000;fill-opacity:1;stroke:none;stroke-width:2.72295">
        <g
           id="g277897">
          <path
             id="path277889"
             style="font-style:normal;font-variant:normal;font-weight:600;font-stretch:normal;font-family:'Gill Sans';-inkscape-font-specification:'Gill Sans Semi-Bold';fill:#ff0000;stroke-width:2.72295"
             d="m 66.284531,35.736214 q 2.286852,0 4.68007,0.425461 2.4464,0.42546 3.935514,1.116834 v 10.636524 q -2.712314,-0.744557 -5.903271,-0.744557 -4.733253,0 -7.073288,2.446401 -2.286852,2.4464 -2.286852,8.13694 v 3.563235 h 8.509218 v 9.891967 H 59.636704 V 110.98962 H 46.55378 V 71.209019 h -7.073288 v -9.891967 h 7.073288 v -3.722783 q 0,-10.051514 5.371444,-15.954785 5.424627,-5.90327 14.359307,-5.90327 z" />
        </g>
        <g
           id="g277900">
          <path
             id="path277891"
             style="font-style:normal;font-variant:normal;font-weight:600;font-stretch:normal;font-family:'Gill Sans';-inkscape-font-specification:'Gill Sans Semi-Bold';fill:#ff0000;stroke-width:2.72295"
             d="m 93.035386,60.359765 q 9.572874,0 14.625224,4.095062 5.05234,4.041879 5.05234,11.327897 v 24.304456 q 0,2.81868 2.28686,2.81868 0.95728,0 2.65913,-0.79774 1.75502,-0.85092 2.92504,-1.91457 v 7.55193 q -6.86056,4.20142 -12.5511,4.20142 -3.51005,0 -5.42462,-1.17001 -1.86139,-1.17002 -2.60595,-4.14825 -7.49875,5.31826 -15.050682,5.31826 -5.371444,0 -9.253775,-3.61641 -3.829148,-3.61642 -3.829148,-8.668771 0,-6.435097 3.829148,-10.15788 3.829149,-3.722783 13.40202,-6.488279 l 10.58334,-3.084592 v -2.286852 q 0,-7.286019 -8.828314,-7.286019 -4.520522,0 -8.987862,2.074122 -4.46734,2.074122 -8.136941,6.116001 V 66.794862 q 8.136941,-6.435097 19.30529,-6.435097 z m -7.977392,37.334197 q 0,2.712318 1.701843,4.360978 1.755027,1.64866 4.307792,1.64866 4.307792,0 8.615584,-3.935516 V 86.685161 q -5.477809,1.861391 -8.615584,3.510052 -3.084591,1.648661 -4.573705,3.350505 -1.43593,1.701844 -1.43593,4.148244 z" />
        </g>
        <g
           id="g277903">
          <path
             id="path277893"
             style="font-style:normal;font-variant:normal;font-weight:600;font-stretch:normal;font-family:'Gill Sans';-inkscape-font-specification:'Gill Sans Semi-Bold';fill:#ff0000;stroke-width:2.72295"
             d="m 135.42193,61.317052 11.91291,28.771796 11.64699,-28.771796 h 13.93385 L 150.47261,111.9469 h -6.32873 L 121.38172,61.317052 Z" />
        </g>
      </g>
      <text
         xml:space="preserve"
         style="font-style:normal;font-variant:normal;font-weight:normal;font-stretch:normal;font-size:241.296px;line-height:1.25;font-family:مِصحفي;-inkscape-font-specification:مِصحفي;fill:#ff2a2a;fill-opacity:1;stroke:none;stroke-width:6.03238"
         x="143.38176"
         y="130.99461"
         id="text16"
         transform="scale(0.92747575,1.0781953)"><tspan
           sodipodi:role="line"
           id="tspan14"
           x="143.38176"
           y="130.99461"
           style="font-style:normal;font-variant:normal;font-weight:normal;font-stretch:normal;font-family:مِصحفي;-inkscape-font-specification:مِصحفي;fill:#ff2a2a;stroke-width:6.03238">1</tspan></text>
      <text
         xml:space="preserve"
         style="font-style:normal;font-variant:normal;font-weight:normal;font-stretch:normal;font-size:163.901px;line-height:1.25;font-family:'Roboto Condensed Light';-inkscape-font-specification:'Roboto Condensed Light, ';fill:#ff0000;fill-opacity:1;stroke:none;stroke-width:4.09754"
         x="142.39549"
         y="170.80354"
         id="text277873"
         transform="scale(1.1925729,0.83852317)"><tspan
           sodipodi:role="line"
           id="tspan277871"
           x="142.39549"
           y="170.80354"
           style="font-style:normal;font-variant:normal;font-weight:normal;font-stretch:normal;font-family:'Roboto Condensed Light';-inkscape-font-specification:'Roboto Condensed Light, ';fill:#ff0000;stroke-width:4.09754">0</tspan></text>
    </g>
  </g>
</svg>
